# xmcd
#
# Track frame offsets: 
#        150
#        25175
#        41882
#        66889
#        80875
#        91213
#        101105
#        117421
#
# Disc length: 1781 seconds
#
# Revision: 0
# Processed by: cddbd v1.5.2PL0 Copyright (c) Steve Scherf et al.
# Submitted via: ExactAudioCopy v0.99pb5
#
DISCID=6c06f308
DTITLE=Steve Payne - Outlines
DYEAR=2008
DGENRE=Blues
TTITLE0=Suzie Takes A Trip
TTITLE1=Northern Town
TTITLE2=Cocaine 'lil
TTITLE3=Midsummer Madness
TTITLE4=Everybody's Talking About It
TTITLE5=Rita Hayworth's Smile
TTITLE6=Going Down Slow
TTITLE7=Ford Engine Movements
EXTD=
EXTT0=
EXTT1=
EXTT2=
EXTT3=
EXTT4=
EXTT5=
EXTT6=
EXTT7=
PLAYORDER=
